<svg xmlns="http://www.w3.org/2000/svg" viewBox="0 0 128 128">
  <defs>
    <linearGradient id="g" x1="0" x2="1" y1="0" y2="1">
      <stop offset="0%" stop-color="#0d7e65"/>
      <stop offset="100%" stop-color="#1aa181"/>
    </linearGradient>
  </defs>
  <rect width="128" height="128" rx="28" fill="url(#g)"/>
  <circle cx="97" cy="30" r="13" fill="#f1c76a"/>
  <path d="M28 94h72v10H28z" fill="#dff4ee"/>
  <path d="M34 87l16-46h10l16 46h-11l-3-10H47l-3 10zm16-19h9l-4.5-15z" fill="#fff"/>
  <path d="M82 87V41h17c10 0 16 5 16 13 0 6-4 10-9 12 6 2 10 6 10 13 0 10-7 18-21 18zm11-28h5c4 0 7-2 7-5s-2-5-7-5h-5zm0 19h7c5 0 8-2 8-6 0-3-2-6-8-6h-7z" fill="#fff"/>
</svg>
